<mxfile host="app.diagrams.net" modified="2023-12-08T22:15:13.915Z" agent="Mozilla/5.0 (Windows NT 10.0; Win64; x64) AppleWebKit/537.36 (KHTML, like Gecko) Chrome/119.0.0.0 Safari/537.36" etag="-vwB6v9F5U-vhoQ7_5Iq" version="22.1.7" type="google">
  <diagram id="C5RBs43oDa-KdzZeNtuy" name="Page-1">
    <mxGraphModel grid="1" page="0" gridSize="10" guides="1" tooltips="1" connect="1" arrows="1" fold="1" pageScale="1" pageWidth="827" pageHeight="1169" math="0" shadow="0">
      <root>
        <mxCell id="WIyWlLk6GJQsqaUBKTNV-0" />
        <mxCell id="WIyWlLk6GJQsqaUBKTNV-1" parent="WIyWlLk6GJQsqaUBKTNV-0" />
        <mxCell id="AQLRFWjDsrAGFgNxDvMI-2" value="" style="rounded=0;whiteSpace=wrap;html=1;" vertex="1" parent="WIyWlLk6GJQsqaUBKTNV-1">
          <mxGeometry x="-150" y="-550" width="1700" height="1230" as="geometry" />
        </mxCell>
        <mxCell id="2iLDrThzjrusgfKVWEPR-0" value="Calculator&lt;br&gt;" style="swimlane;fontStyle=1;align=center;verticalAlign=top;childLayout=stackLayout;horizontal=1;startSize=26;horizontalStack=0;resizeParent=1;resizeParentMax=0;resizeLast=0;collapsible=1;marginBottom=0;whiteSpace=wrap;html=1;" vertex="1" parent="WIyWlLk6GJQsqaUBKTNV-1">
          <mxGeometry x="-120" y="-442" width="190" height="104" as="geometry" />
        </mxCell>
        <mxCell id="2iLDrThzjrusgfKVWEPR-2" value="" style="line;strokeWidth=1;fillColor=none;align=left;verticalAlign=middle;spacingTop=-1;spacingLeft=3;spacingRight=3;rotatable=0;labelPosition=right;points=[];portConstraint=eastwest;strokeColor=inherit;" vertex="1" parent="2iLDrThzjrusgfKVWEPR-0">
          <mxGeometry y="26" width="190" height="8" as="geometry" />
        </mxCell>
        <mxCell id="2iLDrThzjrusgfKVWEPR-3" value="+ start(Stage stage): void&lt;br&gt;&lt;br&gt;+ static main(String[] args): void" style="text;strokeColor=none;fillColor=none;align=left;verticalAlign=top;spacingLeft=4;spacingRight=4;overflow=hidden;rotatable=0;points=[[0,0.5],[1,0.5]];portConstraint=eastwest;whiteSpace=wrap;html=1;" vertex="1" parent="2iLDrThzjrusgfKVWEPR-0">
          <mxGeometry y="34" width="190" height="70" as="geometry" />
        </mxCell>
        <mxCell id="D9r3QcqiXjhYmasrCtRe-2" value="StackCalc" style="swimlane;fontStyle=1;align=center;verticalAlign=top;childLayout=stackLayout;horizontal=1;startSize=26;horizontalStack=0;resizeParent=1;resizeParentMax=0;resizeLast=0;collapsible=1;marginBottom=0;whiteSpace=wrap;html=1;" vertex="1" parent="WIyWlLk6GJQsqaUBKTNV-1">
          <mxGeometry x="-120" y="-10" width="200" height="378" as="geometry" />
        </mxCell>
        <mxCell id="D9r3QcqiXjhYmasrCtRe-3" value="- static stack: Deque&amp;lt;Number&amp;gt;&lt;br&gt;&lt;br&gt;-MAX_SIZE: int" style="text;strokeColor=none;fillColor=none;align=left;verticalAlign=top;spacingLeft=4;spacingRight=4;overflow=hidden;rotatable=0;points=[[0,0.5],[1,0.5]];portConstraint=eastwest;whiteSpace=wrap;html=1;" vertex="1" parent="D9r3QcqiXjhYmasrCtRe-2">
          <mxGeometry y="26" width="200" height="64" as="geometry" />
        </mxCell>
        <mxCell id="D9r3QcqiXjhYmasrCtRe-4" value="" style="line;strokeWidth=1;fillColor=none;align=left;verticalAlign=middle;spacingTop=-1;spacingLeft=3;spacingRight=3;rotatable=0;labelPosition=right;points=[];portConstraint=eastwest;strokeColor=inherit;" vertex="1" parent="D9r3QcqiXjhYmasrCtRe-2">
          <mxGeometry y="90" width="200" height="8" as="geometry" />
        </mxCell>
        <mxCell id="D9r3QcqiXjhYmasrCtRe-5" value="+ StackCalc()&lt;br&gt;&lt;br&gt;+ getStack(): Deque&amp;nbsp;&lt;br&gt;&lt;br&gt;+ setStack(Deque): void&lt;br&gt;&lt;br&gt;+ pop(): Number&lt;br style=&quot;border-color: var(--border-color);&quot;&gt;&lt;br style=&quot;border-color: var(--border-color);&quot;&gt;+ push(Number): void&lt;br&gt;&lt;br&gt;+ top(): Number&lt;br&gt;&lt;br&gt;+ leastOne(): boolean&lt;br&gt;&lt;br&gt;+ leastTwo(): boolean&amp;nbsp;&lt;br&gt;&lt;br&gt;+ isFull(): boolean" style="text;strokeColor=none;fillColor=none;align=left;verticalAlign=top;spacingLeft=4;spacingRight=4;overflow=hidden;rotatable=0;points=[[0,0.5],[1,0.5]];portConstraint=eastwest;whiteSpace=wrap;html=1;" vertex="1" parent="D9r3QcqiXjhYmasrCtRe-2">
          <mxGeometry y="98" width="200" height="280" as="geometry" />
        </mxCell>
        <mxCell id="9BQNj90xAeT1FVnFhDXc-0" value="&lt;div&gt;Number&lt;/div&gt;" style="swimlane;fontStyle=1;align=center;verticalAlign=top;childLayout=stackLayout;horizontal=1;startSize=26;horizontalStack=0;resizeParent=1;resizeParentMax=0;resizeLast=0;collapsible=1;marginBottom=0;whiteSpace=wrap;html=1;" vertex="1" parent="WIyWlLk6GJQsqaUBKTNV-1">
          <mxGeometry x="170" y="-180" width="160" height="260" as="geometry" />
        </mxCell>
        <mxCell id="9BQNj90xAeT1FVnFhDXc-1" value="&lt;div&gt;- re: double&lt;br&gt;&lt;/div&gt;&lt;div&gt;&lt;br&gt;&lt;/div&gt;&lt;div&gt;- im: double&lt;br&gt;&lt;/div&gt;" style="text;strokeColor=none;fillColor=none;align=left;verticalAlign=top;spacingLeft=4;spacingRight=4;overflow=hidden;rotatable=0;points=[[0,0.5],[1,0.5]];portConstraint=eastwest;whiteSpace=wrap;html=1;" vertex="1" parent="9BQNj90xAeT1FVnFhDXc-0">
          <mxGeometry y="26" width="160" height="54" as="geometry" />
        </mxCell>
        <mxCell id="9BQNj90xAeT1FVnFhDXc-2" value="" style="line;strokeWidth=1;fillColor=none;align=left;verticalAlign=middle;spacingTop=-1;spacingLeft=3;spacingRight=3;rotatable=0;labelPosition=right;points=[];portConstraint=eastwest;strokeColor=inherit;" vertex="1" parent="9BQNj90xAeT1FVnFhDXc-0">
          <mxGeometry y="80" width="160" height="8" as="geometry" />
        </mxCell>
        <mxCell id="9BQNj90xAeT1FVnFhDXc-3" value="+ Number(double, double)&amp;nbsp;&lt;br&gt;&lt;br&gt;+ getRe(): double&lt;br&gt;&lt;br&gt;+ setRe(float): double&lt;br&gt;&lt;br style=&quot;border-color: var(--border-color);&quot;&gt;+ getIm(): double&lt;br style=&quot;border-color: var(--border-color);&quot;&gt;&lt;br style=&quot;border-color: var(--border-color);&quot;&gt;+ setIm(double): double&lt;br&gt;&lt;br&gt;+toString(): String" style="text;strokeColor=none;fillColor=none;align=left;verticalAlign=top;spacingLeft=4;spacingRight=4;overflow=hidden;rotatable=0;points=[[0,0.5],[1,0.5]];portConstraint=eastwest;whiteSpace=wrap;html=1;" vertex="1" parent="9BQNj90xAeT1FVnFhDXc-0">
          <mxGeometry y="88" width="160" height="172" as="geometry" />
        </mxCell>
        <mxCell id="2iLDrThzjrusgfKVWEPR-8" value="Operations" style="swimlane;fontStyle=1;align=center;verticalAlign=top;childLayout=stackLayout;horizontal=1;startSize=26;horizontalStack=0;resizeParent=1;resizeParentMax=0;resizeLast=0;collapsible=1;marginBottom=0;whiteSpace=wrap;html=1;" vertex="1" parent="WIyWlLk6GJQsqaUBKTNV-1">
          <mxGeometry x="400" y="300" width="160" height="270" as="geometry">
            <mxRectangle x="334" y="330" width="110" height="30" as="alternateBounds" />
          </mxGeometry>
        </mxCell>
        <mxCell id="2iLDrThzjrusgfKVWEPR-9" value="- stack: StackCalc" style="text;strokeColor=none;fillColor=none;align=left;verticalAlign=top;spacingLeft=4;spacingRight=4;overflow=hidden;rotatable=0;points=[[0,0.5],[1,0.5]];portConstraint=eastwest;whiteSpace=wrap;html=1;" vertex="1" parent="2iLDrThzjrusgfKVWEPR-8">
          <mxGeometry y="26" width="160" height="24" as="geometry" />
        </mxCell>
        <mxCell id="2iLDrThzjrusgfKVWEPR-10" value="" style="line;strokeWidth=1;fillColor=none;align=left;verticalAlign=middle;spacingTop=-1;spacingLeft=3;spacingRight=3;rotatable=0;labelPosition=right;points=[];portConstraint=eastwest;strokeColor=inherit;" vertex="1" parent="2iLDrThzjrusgfKVWEPR-8">
          <mxGeometry y="50" width="160" height="8" as="geometry" />
        </mxCell>
        <mxCell id="2iLDrThzjrusgfKVWEPR-11" value="+ Operation (StackCalc)&lt;br&gt;&lt;br&gt;+ sum(): void&lt;br&gt;&lt;br&gt;+ sub(): void&lt;br&gt;&lt;br&gt;+ multiplication(): void&lt;br&gt;&lt;br&gt;+ division(): void&lt;br&gt;&lt;br&gt;+ sqrt(): void&lt;br&gt;&lt;br&gt;+ signReversal(): void" style="text;strokeColor=none;fillColor=none;align=left;verticalAlign=top;spacingLeft=4;spacingRight=4;overflow=hidden;rotatable=0;points=[[0,0.5],[1,0.5]];portConstraint=eastwest;whiteSpace=wrap;html=1;" vertex="1" parent="2iLDrThzjrusgfKVWEPR-8">
          <mxGeometry y="58" width="160" height="212" as="geometry" />
        </mxCell>
        <mxCell id="9BQNj90xAeT1FVnFhDXc-4" value="Commands" style="swimlane;fontStyle=1;align=center;verticalAlign=top;childLayout=stackLayout;horizontal=1;startSize=26;horizontalStack=0;resizeParent=1;resizeParentMax=0;resizeLast=0;collapsible=1;marginBottom=0;whiteSpace=wrap;html=1;" vertex="1" parent="WIyWlLk6GJQsqaUBKTNV-1">
          <mxGeometry x="140" y="300" width="190" height="270" as="geometry" />
        </mxCell>
        <mxCell id="D9r3QcqiXjhYmasrCtRe-15" value="- stack: StackCalc" style="text;html=1;align=left;verticalAlign=middle;resizable=0;points=[];autosize=1;strokeColor=none;fillColor=none;" vertex="1" parent="9BQNj90xAeT1FVnFhDXc-4">
          <mxGeometry y="26" width="190" height="30" as="geometry" />
        </mxCell>
        <mxCell id="9BQNj90xAeT1FVnFhDXc-6" value="" style="line;strokeWidth=1;fillColor=none;align=left;verticalAlign=middle;spacingTop=-1;spacingLeft=3;spacingRight=3;rotatable=0;labelPosition=right;points=[];portConstraint=eastwest;strokeColor=inherit;" vertex="1" parent="9BQNj90xAeT1FVnFhDXc-4">
          <mxGeometry y="56" width="190" height="14" as="geometry" />
        </mxCell>
        <mxCell id="9BQNj90xAeT1FVnFhDXc-7" value="&lt;div&gt;+Command(StackCalc)&lt;/div&gt;&lt;div&gt;&lt;br&gt;&lt;/div&gt;&lt;div&gt;+swap(): void&lt;/div&gt;&lt;div&gt;&lt;br&gt;&lt;/div&gt;&lt;div&gt;+ over(): void&lt;/div&gt;&lt;div&gt;&lt;br&gt;&lt;/div&gt;&lt;div&gt;+ clear(): void&lt;/div&gt;&lt;div&gt;&lt;br&gt;&lt;/div&gt;&lt;div&gt;+ drop(): void&lt;/div&gt;&lt;div&gt;&lt;br&gt;&lt;/div&gt;&lt;div&gt;+ dup():void&lt;/div&gt;&lt;div&gt;&lt;br&gt;&lt;/div&gt;&lt;div&gt;+ toString(): String&lt;br&gt;&lt;/div&gt;" style="text;strokeColor=none;fillColor=none;align=left;verticalAlign=top;spacingLeft=4;spacingRight=4;overflow=hidden;rotatable=0;points=[[0,0.5],[1,0.5]];portConstraint=eastwest;whiteSpace=wrap;html=1;" vertex="1" parent="9BQNj90xAeT1FVnFhDXc-4">
          <mxGeometry y="70" width="190" height="200" as="geometry" />
        </mxCell>
        <mxCell id="D9r3QcqiXjhYmasrCtRe-10" value="Variables" style="swimlane;fontStyle=1;align=center;verticalAlign=top;childLayout=stackLayout;horizontal=1;startSize=26;horizontalStack=0;resizeParent=1;resizeParentMax=0;resizeLast=0;collapsible=1;marginBottom=0;whiteSpace=wrap;html=1;" vertex="1" parent="WIyWlLk6GJQsqaUBKTNV-1">
          <mxGeometry x="400" y="-60" width="250" height="270" as="geometry" />
        </mxCell>
        <mxCell id="D9r3QcqiXjhYmasrCtRe-11" value="- stack: StackCalc&lt;br&gt;&lt;br&gt;- map: HashMap &amp;lt;Character, Number&amp;gt;" style="text;strokeColor=none;fillColor=none;align=left;verticalAlign=top;spacingLeft=4;spacingRight=4;overflow=hidden;rotatable=0;points=[[0,0.5],[1,0.5]];portConstraint=eastwest;whiteSpace=wrap;html=1;" vertex="1" parent="D9r3QcqiXjhYmasrCtRe-10">
          <mxGeometry y="26" width="250" height="84" as="geometry" />
        </mxCell>
        <mxCell id="D9r3QcqiXjhYmasrCtRe-12" value="" style="line;strokeWidth=1;fillColor=none;align=left;verticalAlign=middle;spacingTop=-1;spacingLeft=3;spacingRight=3;rotatable=0;labelPosition=right;points=[];portConstraint=eastwest;strokeColor=inherit;" vertex="1" parent="D9r3QcqiXjhYmasrCtRe-10">
          <mxGeometry y="110" width="250" height="8" as="geometry" />
        </mxCell>
        <mxCell id="D9r3QcqiXjhYmasrCtRe-13" value="+ Variables(StackCalc)&lt;br&gt;&lt;br&gt;+ stackToVar(Character): void&lt;br&gt;&lt;br&gt;+ varToStack(Character): void&lt;br&gt;&lt;br&gt;+ addToVar(Character): void&lt;br&gt;&amp;nbsp;&lt;br&gt;+ subToVar(Character): void" style="text;strokeColor=none;fillColor=none;align=left;verticalAlign=top;spacingLeft=4;spacingRight=4;overflow=hidden;rotatable=0;points=[[0,0.5],[1,0.5]];portConstraint=eastwest;whiteSpace=wrap;html=1;" vertex="1" parent="D9r3QcqiXjhYmasrCtRe-10">
          <mxGeometry y="118" width="250" height="152" as="geometry" />
        </mxCell>
        <mxCell id="9BQNj90xAeT1FVnFhDXc-13" value="CalcExceptions" style="swimlane;fontStyle=1;align=center;verticalAlign=top;childLayout=stackLayout;horizontal=1;startSize=26;horizontalStack=0;resizeParent=1;resizeParentMax=0;resizeLast=0;collapsible=1;marginBottom=0;whiteSpace=wrap;html=1;" vertex="1" parent="WIyWlLk6GJQsqaUBKTNV-1">
          <mxGeometry x="990" y="400" width="160" height="60" as="geometry" />
        </mxCell>
        <mxCell id="9BQNj90xAeT1FVnFhDXc-15" value="" style="line;strokeWidth=1;fillColor=none;align=left;verticalAlign=middle;spacingTop=-1;spacingLeft=3;spacingRight=3;rotatable=0;labelPosition=right;points=[];portConstraint=eastwest;strokeColor=inherit;" vertex="1" parent="9BQNj90xAeT1FVnFhDXc-13">
          <mxGeometry y="26" width="160" height="8" as="geometry" />
        </mxCell>
        <mxCell id="9BQNj90xAeT1FVnFhDXc-16" value="+StackException(String)" style="text;strokeColor=none;fillColor=none;align=left;verticalAlign=top;spacingLeft=4;spacingRight=4;overflow=hidden;rotatable=0;points=[[0,0.5],[1,0.5]];portConstraint=eastwest;whiteSpace=wrap;html=1;" vertex="1" parent="9BQNj90xAeT1FVnFhDXc-13">
          <mxGeometry y="34" width="160" height="26" as="geometry" />
        </mxCell>
        <mxCell id="D9r3QcqiXjhYmasrCtRe-18" value="FullStackException" style="swimlane;fontStyle=1;align=center;verticalAlign=top;childLayout=stackLayout;horizontal=1;startSize=26;horizontalStack=0;resizeParent=1;resizeParentMax=0;resizeLast=0;collapsible=1;marginBottom=0;whiteSpace=wrap;html=1;" vertex="1" parent="WIyWlLk6GJQsqaUBKTNV-1">
          <mxGeometry x="1130" y="220" width="170" height="60" as="geometry" />
        </mxCell>
        <mxCell id="D9r3QcqiXjhYmasrCtRe-20" value="" style="line;strokeWidth=1;fillColor=none;align=left;verticalAlign=middle;spacingTop=-1;spacingLeft=3;spacingRight=3;rotatable=0;labelPosition=right;points=[];portConstraint=eastwest;strokeColor=inherit;" vertex="1" parent="D9r3QcqiXjhYmasrCtRe-18">
          <mxGeometry y="26" width="170" height="8" as="geometry" />
        </mxCell>
        <mxCell id="D9r3QcqiXjhYmasrCtRe-21" value="+ FullStackException(String)" style="text;strokeColor=none;fillColor=none;align=left;verticalAlign=top;spacingLeft=4;spacingRight=4;overflow=hidden;rotatable=0;points=[[0,0.5],[1,0.5]];portConstraint=eastwest;whiteSpace=wrap;html=1;" vertex="1" parent="D9r3QcqiXjhYmasrCtRe-18">
          <mxGeometry y="34" width="170" height="26" as="geometry" />
        </mxCell>
        <mxCell id="D9r3QcqiXjhYmasrCtRe-22" value="InsuffElemStackException" style="swimlane;fontStyle=1;align=center;verticalAlign=top;childLayout=stackLayout;horizontal=1;startSize=26;horizontalStack=0;resizeParent=1;resizeParentMax=0;resizeLast=0;collapsible=1;marginBottom=0;whiteSpace=wrap;html=1;" vertex="1" parent="WIyWlLk6GJQsqaUBKTNV-1">
          <mxGeometry x="1210" y="320" width="200" height="60" as="geometry" />
        </mxCell>
        <mxCell id="D9r3QcqiXjhYmasrCtRe-24" value="" style="line;strokeWidth=1;fillColor=none;align=left;verticalAlign=middle;spacingTop=-1;spacingLeft=3;spacingRight=3;rotatable=0;labelPosition=right;points=[];portConstraint=eastwest;strokeColor=inherit;" vertex="1" parent="D9r3QcqiXjhYmasrCtRe-22">
          <mxGeometry y="26" width="200" height="8" as="geometry" />
        </mxCell>
        <mxCell id="D9r3QcqiXjhYmasrCtRe-25" value="+InsuffElemStackException(String)" style="text;strokeColor=none;fillColor=none;align=left;verticalAlign=top;spacingLeft=4;spacingRight=4;overflow=hidden;rotatable=0;points=[[0,0.5],[1,0.5]];portConstraint=eastwest;whiteSpace=wrap;html=1;" vertex="1" parent="D9r3QcqiXjhYmasrCtRe-22">
          <mxGeometry y="34" width="200" height="26" as="geometry" />
        </mxCell>
        <mxCell id="hIhBA7y2U0eLTaK6AV08-0" style="edgeStyle=orthogonalEdgeStyle;rounded=0;orthogonalLoop=1;jettySize=auto;html=1;exitX=1;exitY=0.5;exitDx=0;exitDy=0;" edge="1" parent="D9r3QcqiXjhYmasrCtRe-22">
          <mxGeometry relative="1" as="geometry">
            <mxPoint x="200" y="39" as="sourcePoint" />
            <mxPoint x="200" y="39" as="targetPoint" />
          </mxGeometry>
        </mxCell>
        <mxCell id="D9r3QcqiXjhYmasrCtRe-26" value="DivisionZeroException" style="swimlane;fontStyle=1;align=center;verticalAlign=top;childLayout=stackLayout;horizontal=1;startSize=26;horizontalStack=0;resizeParent=1;resizeParentMax=0;resizeLast=0;collapsible=1;marginBottom=0;whiteSpace=wrap;html=1;" vertex="1" parent="WIyWlLk6GJQsqaUBKTNV-1">
          <mxGeometry x="730" y="310" width="200" height="60" as="geometry" />
        </mxCell>
        <mxCell id="D9r3QcqiXjhYmasrCtRe-28" value="" style="line;strokeWidth=1;fillColor=none;align=left;verticalAlign=middle;spacingTop=-1;spacingLeft=3;spacingRight=3;rotatable=0;labelPosition=right;points=[];portConstraint=eastwest;strokeColor=inherit;" vertex="1" parent="D9r3QcqiXjhYmasrCtRe-26">
          <mxGeometry y="26" width="200" height="8" as="geometry" />
        </mxCell>
        <mxCell id="D9r3QcqiXjhYmasrCtRe-29" value="+ DivisionZeroException(String)" style="text;strokeColor=none;fillColor=none;align=left;verticalAlign=top;spacingLeft=4;spacingRight=4;overflow=hidden;rotatable=0;points=[[0,0.5],[1,0.5]];portConstraint=eastwest;whiteSpace=wrap;html=1;" vertex="1" parent="D9r3QcqiXjhYmasrCtRe-26">
          <mxGeometry y="34" width="200" height="26" as="geometry" />
        </mxCell>
        <mxCell id="D9r3QcqiXjhYmasrCtRe-30" value="InvalidArgException" style="swimlane;fontStyle=1;align=center;verticalAlign=top;childLayout=stackLayout;horizontal=1;startSize=26;horizontalStack=0;resizeParent=1;resizeParentMax=0;resizeLast=0;collapsible=1;marginBottom=0;whiteSpace=wrap;html=1;" vertex="1" parent="WIyWlLk6GJQsqaUBKTNV-1">
          <mxGeometry x="850" y="220" width="200" height="60" as="geometry" />
        </mxCell>
        <mxCell id="D9r3QcqiXjhYmasrCtRe-32" value="" style="line;strokeWidth=1;fillColor=none;align=left;verticalAlign=middle;spacingTop=-1;spacingLeft=3;spacingRight=3;rotatable=0;labelPosition=right;points=[];portConstraint=eastwest;strokeColor=inherit;" vertex="1" parent="D9r3QcqiXjhYmasrCtRe-30">
          <mxGeometry y="26" width="200" height="8" as="geometry" />
        </mxCell>
        <mxCell id="D9r3QcqiXjhYmasrCtRe-33" value="+InvalidArgException(String)" style="text;strokeColor=none;fillColor=none;align=left;verticalAlign=top;spacingLeft=4;spacingRight=4;overflow=hidden;rotatable=0;points=[[0,0.5],[1,0.5]];portConstraint=eastwest;whiteSpace=wrap;html=1;" vertex="1" parent="D9r3QcqiXjhYmasrCtRe-30">
          <mxGeometry y="34" width="200" height="26" as="geometry" />
        </mxCell>
        <mxCell id="D9r3QcqiXjhYmasrCtRe-34" value="UnusedVarException" style="swimlane;fontStyle=1;align=center;verticalAlign=top;childLayout=stackLayout;horizontal=1;startSize=26;horizontalStack=0;resizeParent=1;resizeParentMax=0;resizeLast=0;collapsible=1;marginBottom=0;whiteSpace=wrap;html=1;" vertex="1" parent="WIyWlLk6GJQsqaUBKTNV-1">
          <mxGeometry x="1000" y="150" width="180" height="60" as="geometry" />
        </mxCell>
        <mxCell id="D9r3QcqiXjhYmasrCtRe-36" value="" style="line;strokeWidth=1;fillColor=none;align=left;verticalAlign=middle;spacingTop=-1;spacingLeft=3;spacingRight=3;rotatable=0;labelPosition=right;points=[];portConstraint=eastwest;strokeColor=inherit;" vertex="1" parent="D9r3QcqiXjhYmasrCtRe-34">
          <mxGeometry y="26" width="180" height="8" as="geometry" />
        </mxCell>
        <mxCell id="D9r3QcqiXjhYmasrCtRe-37" value="+UnusedVarException(String)" style="text;strokeColor=none;fillColor=none;align=left;verticalAlign=top;spacingLeft=4;spacingRight=4;overflow=hidden;rotatable=0;points=[[0,0.5],[1,0.5]];portConstraint=eastwest;whiteSpace=wrap;html=1;" vertex="1" parent="D9r3QcqiXjhYmasrCtRe-34">
          <mxGeometry y="34" width="180" height="26" as="geometry" />
        </mxCell>
        <mxCell id="tOTJSq35Mee3HVEJ__9Y-5" value="Extends" style="endArrow=block;endSize=16;endFill=0;html=1;rounded=0;entryX=0.75;entryY=0;entryDx=0;entryDy=0;exitX=0.231;exitY=1.115;exitDx=0;exitDy=0;exitPerimeter=0;edgeStyle=orthogonalEdgeStyle;" edge="1" parent="WIyWlLk6GJQsqaUBKTNV-1" source="D9r3QcqiXjhYmasrCtRe-21" target="9BQNj90xAeT1FVnFhDXc-13">
          <mxGeometry width="160" relative="1" as="geometry">
            <mxPoint x="1070" y="399.5" as="sourcePoint" />
            <mxPoint x="1230" y="399.5" as="targetPoint" />
            <mxPoint as="offset" />
            <Array as="points">
              <mxPoint x="1169" y="360" />
              <mxPoint x="1110" y="360" />
            </Array>
          </mxGeometry>
        </mxCell>
        <mxCell id="tOTJSq35Mee3HVEJ__9Y-6" value="Extends" style="endArrow=block;endSize=16;endFill=0;html=1;rounded=0;exitX=0.448;exitY=1.143;exitDx=0;exitDy=0;entryX=0.571;entryY=0.052;entryDx=0;entryDy=0;exitPerimeter=0;entryPerimeter=0;" edge="1" parent="WIyWlLk6GJQsqaUBKTNV-1" source="D9r3QcqiXjhYmasrCtRe-37" target="9BQNj90xAeT1FVnFhDXc-13">
          <mxGeometry x="0.0034" width="160" relative="1" as="geometry">
            <mxPoint x="1180" y="119" as="sourcePoint" />
            <mxPoint x="1643" y="426" as="targetPoint" />
            <mxPoint as="offset" />
          </mxGeometry>
        </mxCell>
        <mxCell id="tOTJSq35Mee3HVEJ__9Y-7" value="Extends" style="endArrow=block;endSize=16;endFill=0;html=1;rounded=0;edgeStyle=orthogonalEdgeStyle;exitX=0.395;exitY=1.115;exitDx=0;exitDy=0;exitPerimeter=0;entryX=1;entryY=0.25;entryDx=0;entryDy=0;" edge="1" parent="WIyWlLk6GJQsqaUBKTNV-1" source="D9r3QcqiXjhYmasrCtRe-25" target="9BQNj90xAeT1FVnFhDXc-13">
          <mxGeometry x="0.0159" y="-1" width="160" relative="1" as="geometry">
            <mxPoint x="1500" y="139" as="sourcePoint" />
            <mxPoint x="1430" y="460" as="targetPoint" />
            <Array as="points">
              <mxPoint x="1290" y="415" />
            </Array>
            <mxPoint y="1" as="offset" />
          </mxGeometry>
        </mxCell>
        <mxCell id="tOTJSq35Mee3HVEJ__9Y-8" value="Extends" style="endArrow=block;endSize=16;endFill=0;html=1;rounded=0;entryX=0;entryY=0.25;entryDx=0;entryDy=0;exitX=0.475;exitY=1;exitDx=0;exitDy=0;exitPerimeter=0;edgeStyle=orthogonalEdgeStyle;" edge="1" parent="WIyWlLk6GJQsqaUBKTNV-1" source="D9r3QcqiXjhYmasrCtRe-29" target="9BQNj90xAeT1FVnFhDXc-13">
          <mxGeometry width="160" relative="1" as="geometry">
            <mxPoint x="780" y="239.99800000000005" as="sourcePoint" />
            <mxPoint x="1101" y="377" as="targetPoint" />
          </mxGeometry>
        </mxCell>
        <mxCell id="tOTJSq35Mee3HVEJ__9Y-9" value="Extends" style="endArrow=block;endSize=16;endFill=0;html=1;rounded=0;entryX=0.125;entryY=-0.033;entryDx=0;entryDy=0;exitX=0.47;exitY=1.038;exitDx=0;exitDy=0;exitPerimeter=0;edgeStyle=orthogonalEdgeStyle;entryPerimeter=0;" edge="1" parent="WIyWlLk6GJQsqaUBKTNV-1" source="D9r3QcqiXjhYmasrCtRe-33" target="9BQNj90xAeT1FVnFhDXc-13">
          <mxGeometry width="160" relative="1" as="geometry">
            <mxPoint x="969" y="220" as="sourcePoint" />
            <mxPoint x="1151" y="337.01" as="targetPoint" />
          </mxGeometry>
        </mxCell>
        <mxCell id="tOTJSq35Mee3HVEJ__9Y-11" value="1" style="endArrow=open;html=1;endSize=12;startArrow=diamondThin;startSize=14;startFill=1;align=left;verticalAlign=bottom;rounded=0;entryX=0.02;entryY=0.016;entryDx=0;entryDy=0;entryPerimeter=0;edgeStyle=orthogonalEdgeStyle;exitX=1.005;exitY=0.04;exitDx=0;exitDy=0;exitPerimeter=0;" edge="1" parent="WIyWlLk6GJQsqaUBKTNV-1" source="D9r3QcqiXjhYmasrCtRe-2" target="9BQNj90xAeT1FVnFhDXc-3">
          <mxGeometry x="-0.9274" y="12" relative="1" as="geometry">
            <mxPoint x="160" y="40" as="sourcePoint" />
            <mxPoint x="60" y="-190" as="targetPoint" />
            <mxPoint as="offset" />
          </mxGeometry>
        </mxCell>
        <mxCell id="T_AK9h_kBe5kzCU1-ldM-9" value="CalculatorViewController" style="swimlane;fontStyle=1;align=center;verticalAlign=top;childLayout=stackLayout;horizontal=1;startSize=26;horizontalStack=0;resizeParent=1;resizeParentMax=0;resizeLast=0;collapsible=1;marginBottom=0;whiteSpace=wrap;html=1;" vertex="1" parent="WIyWlLk6GJQsqaUBKTNV-1">
          <mxGeometry x="560" y="-442" width="310" height="330" as="geometry" />
        </mxCell>
        <mxCell id="T_AK9h_kBe5kzCU1-ldM-11" value="" style="line;strokeWidth=1;fillColor=none;align=left;verticalAlign=middle;spacingTop=-1;spacingLeft=3;spacingRight=3;rotatable=0;labelPosition=right;points=[];portConstraint=eastwest;strokeColor=inherit;" vertex="1" parent="T_AK9h_kBe5kzCU1-ldM-9">
          <mxGeometry y="26" width="310" height="8" as="geometry" />
        </mxCell>
        <mxCell id="T_AK9h_kBe5kzCU1-ldM-12" value="&lt;div&gt;+ initialize(URL url,&amp;nbsp;&amp;nbsp;&lt;span style=&quot;background-color: initial;&quot;&gt;ResourceBundle rb): void&lt;/span&gt;&lt;/div&gt;&lt;div&gt;&lt;span style=&quot;background-color: initial;&quot;&gt;- private void handleComboAction(ActionEvent event)&lt;/span&gt;&lt;/div&gt;&lt;div&gt;- quitApp(ActionEvent event): void&lt;/div&gt;&lt;div&gt;- swap (ActionEvent event):void&lt;/div&gt;&lt;div&gt;- over (ActionEvent event):void&lt;span style=&quot;background-color: initial;&quot;&gt;&amp;nbsp; &amp;nbsp;&lt;/span&gt;&lt;/div&gt;&lt;div&gt;- clear (ActionEvent event):void&lt;/div&gt;&lt;div&gt;- drop (ActionEvent event):void&lt;/div&gt;&lt;div&gt;- dup (ActionEvent event):void&lt;/div&gt;&lt;div&gt;- handleInput(ActionEvent&amp;nbsp;&lt;span style=&quot;background-color: initial;&quot;&gt;event):void&lt;/span&gt;&lt;/div&gt;&lt;div&gt;- sum(ActionEvent event):void&lt;/div&gt;&lt;div&gt;- sub(ActionEvent event):void&lt;/div&gt;&lt;div&gt;- division(ActionEvent event):void&lt;/div&gt;&lt;div&gt;- multiplication(ActionEvent event):void&lt;/div&gt;&lt;div&gt;- sqrt(ActionEvent event):void&lt;/div&gt;&lt;div&gt;- signReversal(ActionEvent event):void&lt;/div&gt;&lt;div&gt;- push(ActionEvent event):void&lt;/div&gt;&lt;div&gt;- stackToVar(ActionEvent event, Character var):void&lt;/div&gt;&lt;div&gt;- varToStack(ActionEvent event, Character var):void&lt;/div&gt;&lt;div&gt;- addToVar(ActionEvent event, Character var):void&lt;/div&gt;&lt;div&gt;- subToVar(ActionEvent event, Character var):void&lt;/div&gt;&lt;div&gt;&lt;br&gt;&lt;/div&gt;" style="text;strokeColor=none;fillColor=none;align=left;verticalAlign=top;spacingLeft=4;spacingRight=4;overflow=hidden;rotatable=0;points=[[0,0.5],[1,0.5]];portConstraint=eastwest;whiteSpace=wrap;html=1;" vertex="1" parent="T_AK9h_kBe5kzCU1-ldM-9">
          <mxGeometry y="34" width="310" height="296" as="geometry" />
        </mxCell>
        <mxCell id="tOTJSq35Mee3HVEJ__9Y-17" value="1" style="endArrow=open;html=1;endSize=12;startArrow=diamondThin;startSize=14;startFill=0;align=left;verticalAlign=bottom;rounded=0;exitX=0.589;exitY=0.007;exitDx=0;exitDy=0;exitPerimeter=0;edgeStyle=orthogonalEdgeStyle;" edge="1" parent="WIyWlLk6GJQsqaUBKTNV-1" source="9BQNj90xAeT1FVnFhDXc-4" target="D9r3QcqiXjhYmasrCtRe-5">
          <mxGeometry x="-0.9846" y="-8" relative="1" as="geometry">
            <mxPoint x="265.9200000000001" y="325.4600000000001" as="sourcePoint" />
            <mxPoint x="120" y="32.54" as="targetPoint" />
            <mxPoint as="offset" />
            <Array as="points">
              <mxPoint x="252" y="228" />
            </Array>
          </mxGeometry>
        </mxCell>
        <mxCell id="tOTJSq35Mee3HVEJ__9Y-18" value="1" style="endArrow=open;html=1;endSize=12;startArrow=diamondThin;startSize=14;startFill=0;align=left;verticalAlign=bottom;rounded=0;exitX=-0.008;exitY=0.401;exitDx=0;exitDy=0;exitPerimeter=0;entryX=1.021;entryY=0.029;entryDx=0;entryDy=0;entryPerimeter=0;edgeStyle=orthogonalEdgeStyle;" edge="1" parent="WIyWlLk6GJQsqaUBKTNV-1" source="D9r3QcqiXjhYmasrCtRe-13" target="D9r3QcqiXjhYmasrCtRe-5">
          <mxGeometry x="-0.8931" y="-9" relative="1" as="geometry">
            <mxPoint x="310" y="140" as="sourcePoint" />
            <mxPoint x="470" y="140" as="targetPoint" />
            <Array as="points">
              <mxPoint x="360" y="119" />
              <mxPoint x="360" y="96" />
            </Array>
            <mxPoint as="offset" />
          </mxGeometry>
        </mxCell>
        <mxCell id="tOTJSq35Mee3HVEJ__9Y-19" value="1" style="endArrow=open;html=1;endSize=12;startArrow=diamondThin;startSize=14;startFill=0;align=left;verticalAlign=bottom;rounded=0;entryX=0.997;entryY=0.179;entryDx=0;entryDy=0;entryPerimeter=0;exitX=0.375;exitY=0;exitDx=0;exitDy=0;exitPerimeter=0;edgeStyle=orthogonalEdgeStyle;" edge="1" parent="WIyWlLk6GJQsqaUBKTNV-1">
          <mxGeometry x="-0.9631" relative="1" as="geometry">
            <mxPoint x="460.6" y="300" as="sourcePoint" />
            <mxPoint x="80.00000000000009" y="138.1199999999999" as="targetPoint" />
            <mxPoint as="offset" />
            <Array as="points">
              <mxPoint x="461" y="240" />
              <mxPoint x="341" y="240" />
              <mxPoint x="341" y="138" />
            </Array>
          </mxGeometry>
        </mxCell>
        <mxCell id="tOTJSq35Mee3HVEJ__9Y-21" value="1" style="endArrow=open;html=1;endSize=12;startArrow=diamondThin;startSize=14;startFill=1;edgeStyle=orthogonalEdgeStyle;align=left;verticalAlign=bottom;rounded=0;exitX=0.004;exitY=0.619;exitDx=0;exitDy=0;exitPerimeter=0;" edge="1" parent="WIyWlLk6GJQsqaUBKTNV-1" source="D9r3QcqiXjhYmasrCtRe-11" target="9BQNj90xAeT1FVnFhDXc-3">
          <mxGeometry x="-0.5579" y="-10" relative="1" as="geometry">
            <mxPoint x="290" y="70" as="sourcePoint" />
            <mxPoint x="450" y="70" as="targetPoint" />
            <mxPoint as="offset" />
          </mxGeometry>
        </mxCell>
        <mxCell id="w9q1O_r-ALxDYZsQ_3G3-2" value="" style="endArrow=open;endSize=12;dashed=1;html=1;rounded=0;fontSize=12;curved=1;entryX=0.403;entryY=0.007;entryDx=0;entryDy=0;exitX=0.514;exitY=0.988;exitDx=0;exitDy=0;exitPerimeter=0;entryPerimeter=0;" edge="1" parent="WIyWlLk6GJQsqaUBKTNV-1" target="D9r3QcqiXjhYmasrCtRe-2">
          <mxGeometry x="1" y="198" width="160" relative="1" as="geometry">
            <mxPoint x="-39.999999999999915" y="-337.99999999999994" as="sourcePoint" />
            <mxPoint x="-37.66" y="-99.16" as="targetPoint" />
            <Array as="points">
              <mxPoint x="-39.66" y="-219.16" />
            </Array>
            <mxPoint x="140" y="58" as="offset" />
          </mxGeometry>
        </mxCell>
        <mxCell id="w9q1O_r-ALxDYZsQ_3G3-3" value="" style="endArrow=open;endSize=12;dashed=1;html=1;rounded=0;fontSize=12;curved=1;" edge="1" parent="WIyWlLk6GJQsqaUBKTNV-1">
          <mxGeometry x="1" y="198" width="160" relative="1" as="geometry">
            <mxPoint x="-40" y="650" as="sourcePoint" />
            <mxPoint x="-38" y="368" as="targetPoint" />
            <Array as="points">
              <mxPoint x="-39.66" y="486.84000000000003" />
            </Array>
            <mxPoint x="140" y="58" as="offset" />
          </mxGeometry>
        </mxCell>
        <mxCell id="w9q1O_r-ALxDYZsQ_3G3-4" value="" style="endArrow=none;dashed=1;html=1;rounded=0;fontSize=12;startSize=8;endSize=8;curved=1;" edge="1" parent="WIyWlLk6GJQsqaUBKTNV-1">
          <mxGeometry width="50" height="50" relative="1" as="geometry">
            <mxPoint x="-40" y="650" as="sourcePoint" />
            <mxPoint x="1080" y="650" as="targetPoint" />
          </mxGeometry>
        </mxCell>
        <mxCell id="w9q1O_r-ALxDYZsQ_3G3-5" value="" style="endArrow=none;dashed=1;html=1;rounded=0;fontSize=12;startSize=8;endSize=8;curved=1;" edge="1" parent="WIyWlLk6GJQsqaUBKTNV-1">
          <mxGeometry width="50" height="50" relative="1" as="geometry">
            <mxPoint x="1080" y="650" as="sourcePoint" />
            <mxPoint x="1080" y="460" as="targetPoint" />
          </mxGeometry>
        </mxCell>
        <mxCell id="hHNQ5jNFs52PwRpcfOGK-1" value="" style="html=1;verticalAlign=bottom;endArrow=open;dashed=1;endSize=8;curved=0;rounded=0;fontSize=12;exitX=1;exitY=0.5;exitDx=0;exitDy=0;entryX=0.004;entryY=0.123;entryDx=0;entryDy=0;entryPerimeter=0;" edge="1" parent="WIyWlLk6GJQsqaUBKTNV-1" source="2iLDrThzjrusgfKVWEPR-3" target="T_AK9h_kBe5kzCU1-ldM-12">
          <mxGeometry relative="1" as="geometry">
            <mxPoint x="400" y="-300" as="sourcePoint" />
            <mxPoint x="320" y="-300" as="targetPoint" />
          </mxGeometry>
        </mxCell>
      </root>
    </mxGraphModel>
  </diagram>
</mxfile>
